<svg id="visual" viewBox="0 0 1000 150" width="1000" height="150" xmlns="http://www.w3.org/2000/svg" xmlns:xlink="http://www.w3.org/1999/xlink" version="1.1"><rect x="0" y="0" width="1000" height="150" fill="#E0FCFF"></rect><path d="M0 54L23.8 55.3C47.7 56.7 95.3 59.3 143 59.3C190.7 59.3 238.3 56.7 286 57.5C333.7 58.3 381.3 62.7 428.8 65.3C476.3 68 523.7 69 571.2 67.3C618.7 65.7 666.3 61.3 714 59.7C761.7 58 809.3 59 857 59.3C904.7 59.7 952.3 59.3 976.2 59.2L1000 59L1000 0L976.2 0C952.3 0 904.7 0 857 0C809.3 0 761.7 0 714 0C666.3 0 618.7 0 571.2 0C523.7 0 476.3 0 428.8 0C381.3 0 333.7 0 286 0C238.3 0 190.7 0 143 0C95.3 0 47.7 0 23.8 0L0 0Z" fill="#56cdd8"></path><path d="M0 40L23.8 40.7C47.7 41.3 95.3 42.7 143 42.5C190.7 42.3 238.3 40.7 286 40.3C333.7 40 381.3 41 428.8 40.8C476.3 40.7 523.7 39.3 571.2 38.8C618.7 38.3 666.3 38.7 714 38.7C761.7 38.7 809.3 38.3 857 39.3C904.7 40.3 952.3 42.7 976.2 43.8L1000 45L1000 0L976.2 0C952.3 0 904.7 0 857 0C809.3 0 761.7 0 714 0C666.3 0 618.7 0 571.2 0C523.7 0 476.3 0 428.8 0C381.3 0 333.7 0 286 0C238.3 0 190.7 0 143 0C95.3 0 47.7 0 23.8 0L0 0Z" fill="#6ec5e8"></path><path d="M0 16L23.8 17.8C47.7 19.7 95.3 23.3 143 24.5C190.7 25.7 238.3 24.3 286 22.8C333.7 21.3 381.3 19.7 428.8 18.8C476.3 18 523.7 18 571.2 19.2C618.7 20.3 666.3 22.7 714 24C761.7 25.3 809.3 25.7 857 25.8C904.7 26 952.3 26 976.2 26L1000 26L1000 0L976.2 0C952.3 0 904.7 0 857 0C809.3 0 761.7 0 714 0C666.3 0 618.7 0 571.2 0C523.7 0 476.3 0 428.8 0C381.3 0 333.7 0 286 0C238.3 0 190.7 0 143 0C95.3 0 47.7 0 23.8 0L0 0Z" fill="#94bbe9"></path></svg>