<svg id="visual" viewBox="0 0 1000 150" width="1000" height="150" xmlns="http://www.w3.org/2000/svg" xmlns:xlink="http://www.w3.org/1999/xlink" version="1.1"><rect x="0" y="0" width="1000" height="150" fill="#E0FCFF"></rect><path d="M0 94L23.8 92.7C47.7 91.3 95.3 88.7 143 88.7C190.7 88.7 238.3 91.3 286 90.5C333.7 89.7 381.3 85.3 428.8 82.7C476.3 80 523.7 79 571.2 80.7C618.7 82.3 666.3 86.7 714 88.3C761.7 90 809.3 89 857 88.7C904.7 88.3 952.3 88.7 976.2 88.8L1000 89L1000 151L976.2 151C952.3 151 904.7 151 857 151C809.3 151 761.7 151 714 151C666.3 151 618.7 151 571.2 151C523.7 151 476.3 151 428.8 151C381.3 151 333.7 151 286 151C238.3 151 190.7 151 143 151C95.3 151 47.7 151 23.8 151L0 151Z" fill="#3fc0cc"></path><path d="M0 108L23.8 107.3C47.7 106.7 95.3 105.3 143 105.5C190.7 105.7 238.3 107.3 286 107.7C333.7 108 381.3 107 428.8 107.2C476.3 107.3 523.7 108.7 571.2 109.2C618.7 109.7 666.3 109.3 714 109.3C761.7 109.3 809.3 109.7 857 108.7C904.7 107.7 952.3 105.3 976.2 104.2L1000 103L1000 151L976.2 151C952.3 151 904.7 151 857 151C809.3 151 761.7 151 714 151C666.3 151 618.7 151 571.2 151C523.7 151 476.3 151 428.8 151C381.3 151 333.7 151 286 151C238.3 151 190.7 151 143 151C95.3 151 47.7 151 23.8 151L0 151Z" fill="#65bfe2"></path><path d="M0 132L23.8 130.2C47.7 128.3 95.3 124.7 143 123.5C190.7 122.3 238.3 123.7 286 125.2C333.7 126.7 381.3 128.3 428.8 129.2C476.3 130 523.7 130 571.2 128.8C618.7 127.7 666.3 125.3 714 124C761.7 122.7 809.3 122.3 857 122.2C904.7 122 952.3 122 976.2 122L1000 122L1000 151L976.2 151C952.3 151 904.7 151 857 151C809.3 151 761.7 151 714 151C666.3 151 618.7 151 571.2 151C523.7 151 476.3 151 428.8 151C381.3 151 333.7 151 286 151C238.3 151 190.7 151 143 151C95.3 151 47.7 151 23.8 151L0 151Z" fill="#94bbe9"></path></svg>